<svg xmlns="http://www.w3.org/2000/svg" width="1496" height="1496">
  <path d="M11220 0H0v11220h11220V0" style="fill:none;fill-opacity:1;fill-rule:nonzero;stroke:none"
    transform="matrix(.13333 0 0 -.13333 0 1496)" />
  <path d="m1373.88 8014.29 343.47-200.36 343.47-200.36V8415l-343.47-200.36-343.47-200.35"
    style="fill:#3d537186;fill-opacity:1;fill-rule:nonzero;stroke:none" transform="matrix(.13333 0 0 -.13333 0 1496)" />
  <path d="m1373.88 8815.71 343.47-200.36L2060.82 8415v801.43l-343.47-200.36-343.47-200.36"
    style="fill:#606060;fill-opacity:1;fill-rule:nonzero;stroke:none" transform="matrix(.13333 0 0 -.13333 0 1496)" />
  <path d="m5495.51 2404.28-343.47-200.35-343.46-200.36 343.46-200.36 343.47-200.36V2404.28"
    style="fill:#f7f7f7;fill-opacity:1;fill-rule:nonzero;stroke:none" transform="matrix(.13333 0 0 -.13333 0 1496)" />
  <path d="m2747.76 2404.28 343.47-200.35 343.47-200.36V2805l-343.47-200.36-343.47-200.36"
    style="fill:#efefef;fill-opacity:1;fill-rule:nonzero;stroke:none" transform="matrix(.13333 0 0 -.13333 0 1496)" />
  <path d="M2060.82 2003.57V2805l-343.47-200.36-343.47-200.36 343.47-200.35 343.47-200.36"
    style="fill:#e3e3e3;fill-opacity:1;fill-rule:nonzero;stroke:none" transform="matrix(.13333 0 0 -.13333 0 1496)" />
  <path d="M4121.64 801.402v801.448l-343.47-200.35-343.47-200.4 343.47-200.3 343.47-200.398"
    style="fill:#c9c9c9;fill-opacity:1;fill-rule:nonzero;stroke:none" transform="matrix(.13333 0 0 -.13333 0 1496)" />
  <path d="m2747.76 1602.85 343.47-200.35 343.47-200.4v801.47l-343.47-200.36-343.47-200.36"
    style="fill:#3d537186;fill-opacity:1;fill-rule:nonzero;stroke:none" transform="matrix(.13333 0 0 -.13333 0 1496)" />
  <path d="m686.941 6812.14 343.469-200.35 343.47-200.36v801.42l-343.47-200.35-343.469-200.36"
    style="fill:#f7f7f7;fill-opacity:1;fill-rule:nonzero;stroke:none" transform="matrix(.13333 0 0 -.13333 0 1496)" />
  <path d="m1373.88 8815.71-343.47-200.36L686.941 8415l343.469-200.36 343.47-200.35v801.42"
    style="fill:#c9c9c9;fill-opacity:1;fill-rule:nonzero;stroke:none" transform="matrix(.13333 0 0 -.13333 0 1496)" />
  <path d="m686.941 7613.57 343.469-200.36 343.47-200.36v801.44l-343.47-200.36-343.469-200.36"
    style="fill:#c9c9c9;fill-opacity:1;fill-rule:nonzero;stroke:none" transform="matrix(.13333 0 0 -.13333 0 1496)" />
  <path d="m4121.64 9617.14 343.46-200.35 343.48-200.36v801.47l-343.48-200.4-343.46-200.36"
    style="fill:#f7f7f7;fill-opacity:1;fill-rule:nonzero;stroke:none" transform="matrix(.13333 0 0 -.13333 0 1496)" />
  <path d="M1373.88 2404.28v801.43l-343.47-200.36L686.941 2805l343.469-200.36 343.47-200.36"
    style="fill:#3d537186;fill-opacity:1;fill-rule:nonzero;stroke:none" transform="matrix(.13333 0 0 -.13333 0 1496)" />
  <path d="M2060.82 1202.1v801.47l-343.47-200.36-343.47-200.36 343.47-200.35 343.47-200.4"
    style="fill:#f7f7f7;fill-opacity:1;fill-rule:nonzero;stroke:none" transform="matrix(.13333 0 0 -.13333 0 1496)" />
  <path d="M1373.88 1602.85v801.43l-343.47-200.35-343.469-200.36 343.469-200.36 343.47-200.36"
    style="fill:#3d537186;fill-opacity:1;fill-rule:nonzero;stroke:none" transform="matrix(.13333 0 0 -.13333 0 1496)" />
  <path
    d="m1373.88 5610-343.47-200.36-343.469-200.36 343.469-200.35 343.47-200.36V5610M5495.51 801.402v801.448l-343.47-200.35-343.46-200.4 343.46-200.3 343.47-200.398"
    style="fill:#e3e3e3;fill-opacity:1;fill-rule:nonzero;stroke:none" transform="matrix(.13333 0 0 -.13333 0 1496)" />
  <path d="m2747.76 7212.85 343.47-200.35 343.47-200.36v801.43l-343.47-200.36-343.47-200.36"
    style="fill:#f7f7f7;fill-opacity:1;fill-rule:nonzero;stroke:none" transform="matrix(.13333 0 0 -.13333 0 1496)" />
  <path d="M4121.64 6411.43v801.42l-343.47-200.35-343.47-200.36 343.47-200.35 343.47-200.36"
    style="fill:#e3e3e3;fill-opacity:1;fill-rule:nonzero;stroke:none" transform="matrix(.13333 0 0 -.13333 0 1496)" />
  <path
    d="m4121.64 8014.29 343.46-200.36 343.48-200.36V8415l-343.48-200.36-343.46-200.35M3434.7 7613.57V8415l-343.47-200.36-343.47-200.35 343.47-200.36 343.47-200.36"
    style="fill:#f7f7f7;fill-opacity:1;fill-rule:nonzero;stroke:none" transform="matrix(.13333 0 0 -.13333 0 1496)" />
  <path d="m2060.82 5209.28 343.47-200.35 343.47-200.36V5610l-343.47-200.36-343.47-200.36"
    style="fill:#efefef;fill-opacity:1;fill-rule:nonzero;stroke:none" transform="matrix(.13333 0 0 -.13333 0 1496)" />
  <path d="m5495.51 11220-343.47-200.4-343.46-200.3 343.46-200.4 343.47-200.3v801.4"
    style="fill:#e3e3e3;fill-opacity:1;fill-rule:nonzero;stroke:none" transform="matrix(.13333 0 0 -.13333 0 1496)" />
  <path d="M686.941 8415v801.43l-343.468-200.36L0 8815.71l343.473-200.36L686.941 8415"
    style="fill:#666;fill-opacity:1;fill-rule:nonzero;stroke:none" transform="matrix(.13333 0 0 -.13333 0 1496)" />
  <path d="M686.941 6812.14v801.43l-343.468-200.36L0 7212.85l343.473-200.35 343.468-200.36"
    style="fill:#3d537186;fill-opacity:1;fill-rule:nonzero;stroke:none" transform="matrix(.13333 0 0 -.13333 0 1496)" />
  <path
    d="m2060.82 1202.1-343.47-200.3-343.47-200.398 343.47-200.3 343.47-200.403V1202.1M1373.88 801.402l-343.47-200.3-343.469-200.403 343.469-200.297L1373.88 0v801.402"
    style="fill:#c9c9c9;fill-opacity:1;fill-rule:nonzero;stroke:none" transform="matrix(.13333 0 0 -.13333 0 1496)" />
  <path d="M2747.76 400.699v400.703l-343.47-200.3-343.47-200.403 343.47-200.297L2747.76 0v400.699"
    style="fill:#666;fill-opacity:1;fill-rule:nonzero;stroke:none" transform="matrix(.13333 0 0 -.13333 0 1496)" />
  <path d="m1373.88 10418.6 343.47-200.4 343.47-200.3v801.4l-343.47-200.4-343.47-200.3"
    style="fill:#3d537186;fill-opacity:1;fill-rule:nonzero;stroke:none" transform="matrix(.13333 0 0 -.13333 0 1496)" />
  <path d="M1373.88 10418.6v801.4l-343.47-200.4-343.469-200.3 343.469-200.4 343.47-200.3"
    style="fill:#c9c9c9;fill-opacity:1;fill-rule:nonzero;stroke:none" transform="matrix(.13333 0 0 -.13333 0 1496)" />
  <path d="m2060.82 10017.9 343.47-200.4 343.47-200.36v801.46l-343.47-200.4-343.47-200.3"
    style="fill:#e3e3e3;fill-opacity:1;fill-rule:nonzero;stroke:none" transform="matrix(.13333 0 0 -.13333 0 1496)" />
  <path d="m686.941 10819.3-343.468-200.4L0 10418.6l343.473-200.4 343.468-200.3v801.4"
    style="fill:#666;fill-opacity:1;fill-rule:nonzero;stroke:none" transform="matrix(.13333 0 0 -.13333 0 1496)" />
  <path d="m5495.51 9617.14 343.47 200.36 343.47 200.4-343.47 200.3-343.47 200.4v-801.46"
    style="fill:#f7f7f7;fill-opacity:1;fill-rule:nonzero;stroke:none" transform="matrix(.13333 0 0 -.13333 0 1496)" />
  <path
    d="m5495.51 0 343.47 200.402 343.47 200.297-343.47 200.403-343.47 200.3V0M4121.64 9617.14l343.46 200.36 343.48 200.4-343.48 200.3-343.46 200.4v-801.46"
    style="fill:#e3e3e3;fill-opacity:1;fill-rule:nonzero;stroke:none" transform="matrix(.13333 0 0 -.13333 0 1496)" />
  <path d="m4808.58 3606.43-343.48 200.35-343.46 200.36v-801.43l343.46 200.36 343.48 200.36"
    style="fill:#f7f7f7;fill-opacity:1;fill-rule:nonzero;stroke:none" transform="matrix(.13333 0 0 -.13333 0 1496)" />
  <path d="M4121.64 801.402 4465.1 1001.8l343.48 200.3-343.48 200.4-343.46 200.35V801.402"
    style="fill:#e3e3e3;fill-opacity:1;fill-rule:nonzero;stroke:none" transform="matrix(.13333 0 0 -.13333 0 1496)" />
  <path d="m4121.64 0 343.46 200.402 343.48 200.297-343.48 200.403-343.46 200.3V0"
    style="fill:#666;fill-opacity:1;fill-rule:nonzero;stroke:none" transform="matrix(.13333 0 0 -.13333 0 1496)" />
  <path
    d="m4121.64 10418.6-343.47 200.3-343.47 200.4v-801.4l343.47 200.3 343.47 200.4M4121.64 8815.71l-343.47 200.36-343.47 200.36V8415l343.47 200.35 343.47 200.36"
    style="fill:#e3e3e3;fill-opacity:1;fill-rule:nonzero;stroke:none" transform="matrix(.13333 0 0 -.13333 0 1496)" />
  <path d="m4121.64 4808.57-343.47 200.36-343.47 200.35v-801.43l343.47 200.36 343.47 200.36"
    style="fill:#f7f7f7;fill-opacity:1;fill-rule:nonzero;stroke:none" transform="matrix(.13333 0 0 -.13333 0 1496)" />
  <path d="m3434.7 2805 343.47 200.35 343.47 200.36-343.47 200.36-343.47 200.36V2805"
    style="fill:#e3e3e3;fill-opacity:1;fill-rule:nonzero;stroke:none" transform="matrix(.13333 0 0 -.13333 0 1496)" />
  <path d="m3434.7 400.699 343.47 200.403 343.47 200.3-343.47 200.398-343.47 200.3V400.699"
    style="fill:#efefef;fill-opacity:1;fill-rule:nonzero;stroke:none" transform="matrix(.13333 0 0 -.13333 0 1496)" />
  <path
    d="M3434.7 0h686.93l-343.46 200.402-343.47 200.297V0M2747.76 9617.14l343.47 200.36 343.47 200.4-343.47 200.3-343.47 200.4v-801.46"
    style="fill:#c9c9c9;fill-opacity:1;fill-rule:nonzero;stroke:none" transform="matrix(.13333 0 0 -.13333 0 1496)" />
  <path d="m2747.76 4007.14 343.47 200.36 343.47 200.35-343.47 200.36-343.47 200.36V4007.14"
    style="fill:#efefef;fill-opacity:1;fill-rule:nonzero;stroke:none" transform="matrix(.13333 0 0 -.13333 0 1496)" />
  <path d="m2747.76 3205.71 343.47 200.36 343.47 200.36-343.47 200.35-343.47 200.36V3205.71"
    style="fill:#c9c9c9;fill-opacity:1;fill-rule:nonzero;stroke:none" transform="matrix(.13333 0 0 -.13333 0 1496)" />
  <path d="M2747.76 2404.28v-801.43l343.47 200.36 343.47 200.36-343.47 200.36-343.47 200.35"
    style="fill:#666;fill-opacity:1;fill-rule:nonzero;stroke:none" transform="matrix(.13333 0 0 -.13333 0 1496)" />
  <path d="m3091.23 587.699-343.47 200.403V0h22.86l320.61 187 343.47 200.402-11.43 6.598-332.04 193.699"
    style="fill:#c9c9c9;fill-opacity:1;fill-rule:nonzero;stroke:none" transform="matrix(.13333 0 0 -.13333 0 1496)" />
  <path d="m2060.82 10017.9 343.47 200.3 343.47 200.4-343.47 200.3-343.47 200.4v-801.4"
    style="fill:#666;fill-opacity:1;fill-rule:nonzero;stroke:none" transform="matrix(.13333 0 0 -.13333 0 1496)" />
  <path d="M2060.82 10017.9v-801.47l343.47 200.36 343.47 200.35-343.47 200.36-343.47 200.4"
    style="fill:#c9c9c9;fill-opacity:1;fill-rule:nonzero;stroke:none" transform="matrix(.13333 0 0 -.13333 0 1496)" />
  <path d="m2060.82 8415 343.47 200.35 343.47 200.36-343.47 200.36-343.47 200.36V8415"
    style="fill:#3d537186;fill-opacity:1;fill-rule:nonzero;stroke:none" transform="matrix(.13333 0 0 -.13333 0 1496)" />
  <path d="m2060.82 7613.57 343.47 200.36 343.47 200.36-343.47 200.35L2060.82 8415V7613.57"
    style="fill:#e3e3e3;fill-opacity:1;fill-rule:nonzero;stroke:none" transform="matrix(.13333 0 0 -.13333 0 1496)" />
  <path d="m2060.82 6010.71 343.47 200.36 343.47 200.36-343.47 200.36-343.47 200.35V6010.71"
    style="fill:#efefef;fill-opacity:1;fill-rule:nonzero;stroke:none" transform="matrix(.13333 0 0 -.13333 0 1496)" />
  <path d="m2060.82 5209.28 343.47 200.36L2747.76 5610l-343.47 200.35-343.47 200.36V5209.28"
    style="fill:#c9c9c9;fill-opacity:1;fill-rule:nonzero;stroke:none" transform="matrix(.13333 0 0 -.13333 0 1496)" />
  <path d="M2060.82 5209.28v-801.43l343.47 200.36 343.47 200.36-343.47 200.36-343.47 200.35"
    style="fill:#f7f7f7;fill-opacity:1;fill-rule:nonzero;stroke:none" transform="matrix(.13333 0 0 -.13333 0 1496)" />
  <path d="M2060.82 4407.85v-801.42l343.47 200.35 343.47 200.36-343.47 200.36-343.47 200.35"
    style="fill:#3d537186;fill-opacity:1;fill-rule:nonzero;stroke:none" transform="matrix(.13333 0 0 -.13333 0 1496)" />
  <path d="m2747.76 3205.71-343.47 200.36-343.47 200.36V2805l343.47 200.35 343.47 200.36"
    style="fill:#e3e3e3;fill-opacity:1;fill-rule:nonzero;stroke:none" transform="matrix(.13333 0 0 -.13333 0 1496)" />
  <path
    d="m2060.82 2003.57 343.47 200.36 343.47 200.35-343.47 200.36L2060.82 2805V2003.57M2747.76 801.402 2404.29 1001.8l-343.47 200.3V400.699l343.47 200.403 343.47 200.3M2060.82 400.699V0h686.94l-343.47 200.402-343.47 200.297"
    style="fill:#3d537186;fill-opacity:1;fill-rule:nonzero;stroke:none" transform="matrix(.13333 0 0 -.13333 0 1496)" />
  <path d="m1373.88 10418.6 343.47 200.3 343.47 200.4-343.47 200.3-343.47 200.4v-801.4"
    style="fill:#e3e3e3;fill-opacity:1;fill-rule:nonzero;stroke:none" transform="matrix(.13333 0 0 -.13333 0 1496)" />
  <path d="M1373.88 10418.6v-801.46l343.47 200.36 343.47 200.4-343.47 200.3-343.47 200.4"
    style="fill:#c9c9c9;fill-opacity:1;fill-rule:nonzero;stroke:none" transform="matrix(.13333 0 0 -.13333 0 1496)" />
  <path d="M1373.88 8815.71v-801.42l343.47 200.35L2060.82 8415l-343.47 200.35-343.47 200.36"
    style="fill:#e3e3e3;fill-opacity:1;fill-rule:nonzero;stroke:none" transform="matrix(.13333 0 0 -.13333 0 1496)" />
  <path d="m1373.88 6411.43 343.47 200.36 343.47 200.35-343.47 200.36-343.47 200.35v-801.42"
    style="fill:#666;fill-opacity:1;fill-rule:nonzero;stroke:none" transform="matrix(.13333 0 0 -.13333 0 1496)" />
  <path d="M1373.88 6411.43V5610l343.47 200.35 343.47 200.36-343.47 200.36-343.47 200.36"
    style="fill:#3d537186;fill-opacity:1;fill-rule:nonzero;stroke:none" transform="matrix(.13333 0 0 -.13333 0 1496)" />
  <path d="m2060.82 4407.85-343.47 200.36-343.47 200.36v-801.43l343.47 200.36 343.47 200.35"
    style="fill:#e3e3e3;fill-opacity:1;fill-rule:nonzero;stroke:none" transform="matrix(.13333 0 0 -.13333 0 1496)" />
  <path
    d="m2060.82 2805-343.47 200.35-343.47 200.36v-801.43l343.47 200.36L2060.82 2805M2060.82 2003.57l-343.47 200.36-343.47 200.35v-801.43l343.47 200.36 343.47 200.36"
    style="fill:#c9c9c9;fill-opacity:1;fill-rule:nonzero;stroke:none" transform="matrix(.13333 0 0 -.13333 0 1496)" />
  <path d="M1373.88 801.402V0l343.47 200.402 343.47 200.297-343.47 200.403-343.47 200.3"
    style="fill:#e3e3e3;fill-opacity:1;fill-rule:nonzero;stroke:none" transform="matrix(.13333 0 0 -.13333 0 1496)" />
  <path d="m1373.88 10418.6-343.47 200.3-343.469 200.4v-801.4l343.469 200.3 343.47 200.4"
    style="fill:#efefef;fill-opacity:1;fill-rule:nonzero;stroke:none" transform="matrix(.13333 0 0 -.13333 0 1496)" />
  <path d="M1373.88 9617.14v801.46l-343.47-200.4-343.469-200.3v-801.47l343.469 200.36 343.47 200.35"
    style="fill:#e3e3e3;fill-opacity:1;fill-rule:nonzero;stroke:none" transform="matrix(.13333 0 0 -.13333 0 1496)" />
  <path d="M686.941 8415v-801.43l343.469 200.36 343.47 200.36-343.47 200.35L686.941 8415"
    style="fill:#f7f7f7;fill-opacity:1;fill-rule:nonzero;stroke:none" transform="matrix(.13333 0 0 -.13333 0 1496)" />
  <path d="m1373.88 5610-343.47 200.35-343.469 200.36v-801.43l343.469 200.36L1373.88 5610"
    style="fill:#666;fill-opacity:1;fill-rule:nonzero;stroke:none" transform="matrix(.13333 0 0 -.13333 0 1496)" />
  <path d="m1373.88 4007.14-343.47 200.36-343.469 200.35v-801.42l343.469 200.35 343.47 200.36"
    style="fill:#3d537186;fill-opacity:1;fill-rule:nonzero;stroke:none" transform="matrix(.13333 0 0 -.13333 0 1496)" />
  <path d="m1373.88 3205.71-343.47 200.36-343.469 200.36V2805l343.469 200.35 343.47 200.36"
    style="fill:#666;fill-opacity:1;fill-rule:nonzero;stroke:none" transform="matrix(.13333 0 0 -.13333 0 1496)" />
  <path d="m1373.88 2404.28-343.47 200.36L686.941 2805v-801.43l343.469 200.36 343.47 200.35"
    style="fill:#c9c9c9;fill-opacity:1;fill-rule:nonzero;stroke:none" transform="matrix(.13333 0 0 -.13333 0 1496)" />
  <path d="m686.941 1202.1 343.469 200.4 343.47 200.35-343.47 200.36-343.469 200.36V1202.1"
    style="fill:#666;fill-opacity:1;fill-rule:nonzero;stroke:none" transform="matrix(.13333 0 0 -.13333 0 1496)" />
  <path d="M1373.88 801.402 1030.41 1001.8l-343.469 200.3V400.699l343.469 200.403 343.47 200.3"
    style="fill:#3d537186;fill-opacity:1;fill-rule:nonzero;stroke:none" transform="matrix(.13333 0 0 -.13333 0 1496)" />
  <path d="M686.941 400.699V0h686.939l-343.47 200.402-343.469 200.297"
    style="fill:#e3e3e3;fill-opacity:1;fill-rule:nonzero;stroke:none" transform="matrix(.13333 0 0 -.13333 0 1496)" />
  <path d="M0 10418.6v-801.46l343.473 200.36 343.468 200.4-343.468 200.3L0 10418.6"
    style="fill:#c9c9c9;fill-opacity:1;fill-rule:nonzero;stroke:none" transform="matrix(.13333 0 0 -.13333 0 1496)" />
  <path d="m686.941 8415-343.468 200.35L0 8815.71v-801.42l343.473 200.35L686.941 8415"
    style="fill:#e3e3e3;fill-opacity:1;fill-rule:nonzero;stroke:none" transform="matrix(.13333 0 0 -.13333 0 1496)" />
  <path d="m686.941 7613.57-343.468 200.36L0 8014.29v-801.44l343.473 200.36 343.468 200.36"
    style="fill:#c9c9c9;fill-opacity:1;fill-rule:nonzero;stroke:none" transform="matrix(.13333 0 0 -.13333 0 1496)" />
  <path d="M686.941 6812.14 343.473 7012.5 0 7212.85v-801.42l343.473 200.36 343.468 200.35"
    style="fill:#666;fill-opacity:1;fill-rule:nonzero;stroke:none" transform="matrix(.13333 0 0 -.13333 0 1496)" />
  <path
    d="M0 6411.43V5610l343.473 200.35 343.468 200.36-343.468 200.36L0 6411.43M686.941 4407.85l-343.468 200.36L0 4808.57v-801.43l343.473 200.36 343.468 200.35"
    style="fill:#e3e3e3;fill-opacity:1;fill-rule:nonzero;stroke:none" transform="matrix(.13333 0 0 -.13333 0 1496)" />
  <path d="M0 4007.14v-801.43l343.473 200.36 343.468 200.36-343.468 200.35L0 4007.14"
    style="fill:#666;fill-opacity:1;fill-rule:nonzero;stroke:none" transform="matrix(.13333 0 0 -.13333 0 1496)" />
  <path d="m686.941 2003.57-343.468 200.36L0 2404.28v-801.43l343.473 200.36 343.468 200.36"
    style="fill:#c9c9c9;fill-opacity:1;fill-rule:nonzero;stroke:none" transform="matrix(.13333 0 0 -.13333 0 1496)" />
  <path d="m686.941 1202.1-343.468 200.4L0 1602.85V801.402L343.473 1001.8l343.468 200.3"
    style="fill:#3d537186;fill-opacity:1;fill-rule:nonzero;stroke:none" transform="matrix(.13333 0 0 -.13333 0 1496)" />
  <path d="m343.473 200.402 343.468 200.297-343.468 200.403L0 801.402V0l343.473 200.402"
    style="fill:#c9c9c9;fill-opacity:1;fill-rule:nonzero;stroke:none" transform="matrix(.13333 0 0 -.13333 0 1496)" />
  <path d="M6182.45 11220v-400.7l343.47 200.3 343.47 200.4h-686.94"
    style="fill:#f7f7f7;fill-opacity:1;fill-rule:nonzero;stroke:none" transform="matrix(.13333 0 0 -.13333 0 1496)" />
  <path d="M1373.88 11220H686.941v-400.7l343.469 200.3 343.47 200.4"
    style="fill:#3d537186;fill-opacity:1;fill-rule:nonzero;stroke:none" transform="matrix(.13333 0 0 -.13333 0 1496)" />
</svg>